<svg width="20" height="19" viewBox="0 0 20 19" fill="none" xmlns="http://www.w3.org/2000/svg">
<path fill-rule="evenodd" clip-rule="evenodd" d="M16.3518 4.58136C16.3818 4.62165 16.4076 4.66701 16.4256 4.71612L18.0039 9.09746C18.0839 9.31856 18.0071 9.56097 17.8179 9.68674L12.36 13.3206L6.88105 16.9276C6.69099 17.0532 6.43599 17.0281 6.26402 16.867L2.85002 13.6733C2.81091 13.636 2.7785 13.5943 2.75265 13.5489C2.32407 13.6662 1.84113 13.4935 1.5758 13.0902C1.24756 12.5928 1.37178 11.9312 1.85305 11.6146C2.33292 11.2983 2.99011 11.4457 3.31835 11.9431C3.50286 12.2234 3.54421 12.5554 3.4596 12.8486L5.38761 13.2883C5.87521 13.3999 6.38986 13.3086 6.79957 13.0392C7.2846 12.7194 7.59015 12.177 7.61766 11.5863L7.79763 7.77278C7.53245 7.71349 7.28566 7.55219 7.12224 7.30342C6.794 6.80602 6.91822 6.14441 7.39861 5.8277C7.87936 5.51154 8.53706 5.65862 8.86478 6.15636C9.02372 6.39731 9.0753 6.67759 9.03291 6.93797C9.03327 6.93851 9.03466 6.93835 9.03589 6.93907L12.6031 8.29547C13.1598 8.50701 13.7823 8.44177 14.2687 8.12181C14.6822 7.84909 14.9617 7.42626 15.0545 6.93102L15.4197 4.98292C15.1125 4.94788 14.8186 4.77866 14.631 4.49496C14.3037 3.99775 14.4284 3.33579 14.9083 3.01944C15.389 2.70327 16.0462 2.85069 16.3741 3.34756C16.6323 3.74023 16.609 4.23456 16.3518 4.58136Z" fill="#FED00A"/>
</svg>
