<svg width="375" height="812" viewBox="0 0 375 812" fill="none" xmlns="http://www.w3.org/2000/svg">
<rect width="375" height="812" fill="black"/>
<path opacity="0.3" d="M150.136 -85H89.6851L187.777 174L150.136 -85Z" fill="white"/>
<path opacity="0.3" d="M285.387 -85H224.991L187.778 174L285.387 -85Z" fill="white"/>
<path opacity="0.3" d="M-10.9819 -85H-125.285L187.778 174L-10.9819 -85Z" fill="white"/>
<path opacity="0.3" d="M499.76 -85H385.85L187.778 174L499.76 -85Z" fill="white"/>
<path opacity="0.3" d="M623.556 105.484V-4.54932L187.778 174L623.556 105.484Z" fill="white"/>
<path opacity="0.3" d="M225.419 433H285.87L187.778 174L225.419 433Z" fill="white"/>
<path opacity="0.3" d="M386.537 433H500.846L187.778 174L386.537 433Z" fill="white"/>
<path opacity="0.3" d="M187.778 174L623.556 351.664V241.734L187.778 174Z" fill="white"/>
<path opacity="0.3" d="M-248 -3.66333V106.267L187.778 174L-248 -3.66333Z" fill="white"/>
<path opacity="0.3" d="M-248 242.516V352.549L187.778 174L-248 242.516Z" fill="white"/>
<path opacity="0.3" d="M-124.204 433H-10.2938L187.778 174L-124.204 433Z" fill="white"/>
<path opacity="0.3" d="M90.1689 433H150.565L187.778 174L90.1689 433Z" fill="white"/>
<path d="M110 752L35 341L139 332.5L165 752H110Z" fill="url(#paint0_linear)"/>
<path d="M66 319.5L35 341L139.5 333.5V316.5L66 319.5Z" fill="white"/>
<path d="M95.7222 353.574L96.9773 353.391C100.847 352.829 104.599 352.925 108.233 353.68C111.972 354.419 115.54 355.825 118.939 357.897C122.426 359.849 125.386 362.947 127.818 367.19C130.355 371.418 132.049 376.463 132.901 382.326L132.947 382.64C133.616 387.246 133.388 391.555 132.262 395.567C131.226 399.459 129.635 402.844 127.49 405.721C125.434 408.479 123.02 411.342 120.247 414.31C117.563 417.159 114.954 419.783 112.419 422.182C109.869 424.477 107.529 427.115 105.399 430.097C103.374 433.064 101.991 436.044 101.251 439.038L139.532 433.476L142.498 453.89L79.1152 463.1L77.6093 452.735C76.94 448.129 76.9439 443.746 77.621 439.585C78.2981 435.424 79.4325 431.839 81.0243 428.828C82.6161 425.818 84.4846 422.874 86.6297 419.996C88.8795 417.104 91.1901 414.63 93.5615 412.575C96.0223 410.4 98.371 408.188 100.607 405.939C102.948 403.675 104.991 401.561 106.735 399.597C108.479 397.633 109.774 395.521 110.62 393.26C111.556 390.879 111.841 388.432 111.476 385.92C110.883 381.837 109.47 378.728 107.237 376.594C104.99 374.355 102.401 373.448 99.4728 373.874L98.6883 373.988C95.9841 374.488 93.8809 376.183 92.3785 379.074C90.9655 381.845 90.3473 385.676 90.5241 390.568L68.8734 393.713L68.8705 392.591C68.2869 386.369 68.6017 380.818 69.8151 375.938C71.1331 371.043 73.1784 367.111 75.9511 364.143C78.7086 361.07 81.7295 358.707 85.0137 357.054C88.2828 355.296 91.8522 354.136 95.7222 353.574Z" fill="white"/>
<path d="M238 752L347.5 390L230.5 367L199.5 752H238Z" fill="url(#paint1_linear)"/>
<path d="M347.5 390L321.5 363L234 348.5L230.5 367L347.5 390Z" fill="white"/>
<path d="M284.529 385.187L285.475 385.307C288.314 385.668 290.943 386.41 293.365 387.532C295.865 388.664 298.19 390.221 300.342 392.204C302.493 394.187 304.075 396.871 305.087 400.255C306.109 403.56 306.389 407.34 305.928 411.595L305.806 412.557C305.327 416.321 304.071 419.581 302.039 422.334C300.095 425.017 297.914 426.734 295.495 427.484C297.807 428.837 299.597 431.14 300.865 434.394C302.144 437.569 302.534 441.119 302.035 445.044L301.943 445.765C301.325 450 300.141 453.635 298.393 456.668C296.656 459.622 294.526 461.874 292.006 463.426C289.495 464.897 286.804 465.898 283.932 466.428C281.139 466.969 278.245 467.048 275.249 466.667L274.184 466.532C271.267 466.161 268.563 465.369 266.074 464.157C263.594 462.865 261.289 461.148 259.157 459.004C257.115 456.791 255.559 453.907 254.489 450.352C253.429 446.717 253.1 442.687 253.503 438.261L253.579 437.66L269.427 439.676C269.294 443.241 269.87 445.959 271.154 447.832C272.449 449.624 274.239 450.666 276.526 450.957L277.117 451.032C279.335 451.233 281.206 450.697 282.729 449.426C284.332 448.165 285.281 446.372 285.576 444.049L285.637 443.569C286.004 440.685 285.427 438.292 283.907 436.389C282.465 434.496 280.127 433.344 276.895 432.933L270.39 432.106L272.346 416.726L278.851 417.554C281.847 417.935 284.269 417.469 286.119 416.158C288.057 414.776 289.21 412.644 289.576 409.76L289.637 409.28C289.902 407.197 289.377 405.339 288.063 403.707C286.748 402.075 285.184 401.143 283.37 400.912L282.661 400.822C280.601 400.642 278.715 401.297 277.003 402.789C275.38 404.21 274.167 406.498 273.366 409.652L257.518 407.637L257.609 406.916C258.396 402.62 259.708 398.921 261.544 395.817C263.47 392.643 265.694 390.28 268.215 388.729C270.814 387.187 273.471 386.141 276.185 385.591C278.909 384.961 281.691 384.826 284.529 385.187Z" fill="white"/>
<g filter="url(#filter0_d)">
<path d="M253 277L122 266.5L150 752H222.5L253 277Z" fill="url(#paint2_linear)"/>
<path d="M150 257L122 266.5L253 277L227.5 261.5L150 257Z" fill="white"/>
<path d="M155.5 334.5L210 317V481L185 479.5L175.675 349.303H161L155.5 334.5Z" fill="white"/>
</g>
<defs>
<filter id="filter0_d" x="102" y="247" width="171" height="535" filterUnits="userSpaceOnUse" color-interpolation-filters="sRGB">
<feFlood flood-opacity="0" result="BackgroundImageFix"/>
<feColorMatrix in="SourceAlpha" type="matrix" values="0 0 0 0 0 0 0 0 0 0 0 0 0 0 0 0 0 0 127 0"/>
<feOffset dy="10"/>
<feGaussianBlur stdDeviation="10"/>
<feColorMatrix type="matrix" values="0 0 0 0 1 0 0 0 0 0 0 0 0 0 0 0 0 0 0.25 0"/>
<feBlend mode="normal" in2="BackgroundImageFix" result="effect1_dropShadow"/>
<feBlend mode="normal" in="SourceGraphic" in2="effect1_dropShadow" result="shape"/>
</filter>
<linearGradient id="paint0_linear" x1="100" y1="332.5" x2="100" y2="752" gradientUnits="userSpaceOnUse">
<stop stop-color="#FAFB92"/>
<stop offset="0.140625" stop-color="#B3FF99"/>
<stop offset="0.307292" stop-color="#98E3FA"/>
<stop offset="1" stop-color="#D094FE"/>
</linearGradient>
<linearGradient id="paint1_linear" x1="273.5" y1="367" x2="273.5" y2="752" gradientUnits="userSpaceOnUse">
<stop stop-color="#B3FF99"/>
<stop offset="0.151042" stop-color="#98E3FA"/>
<stop offset="0.307292" stop-color="#D094FE"/>
</linearGradient>
<linearGradient id="paint2_linear" x1="187.5" y1="266.5" x2="187.5" y2="752" gradientUnits="userSpaceOnUse">
<stop stop-color="#FEA1AC"/>
<stop offset="0.145833" stop-color="#FDC19C"/>
<stop offset="0.291667" stop-color="#FAFB92"/>
<stop offset="0.447917" stop-color="#B3FF99"/>
<stop offset="0.734375" stop-color="#98E3FA"/>
<stop offset="1" stop-color="#D094FE"/>
</linearGradient>
</defs>
</svg>

